# xmcd
#
# Track frame offsets: 
#        150
#        12549
#        26592
#        37862
#        50394
#        61323
#        70571
#        83686
#        94267
#        103246
#        113225
#
# Disc length: 1644 seconds
#
# Revision: 1
# Processed by: cddbd v1.5.1PL2 Copyright (c) Steve Scherf et al.
# Submitted via: ExactAudioCopy v0.95a5
#
DISCID=86066a0b
DTITLE=João Gilberto - Besame Mucho
DYEAR=1999
DGENRE=Jazz
TTITLE0=Besame Mucho
TTITLE1=Ela é Carioca
TTITLE2=Eclipse
TTITLE3=Trolley Song
TTITLE4=Esperanza Perdida
TTITLE5=Acapulco
TTITLE6=Farolito
TTITLE7=De Conversa em Conversa
TTITLE8=O Sapo
TTITLE9=João Marcelo
TTITLE10=Astronauta
EXTD=YEAR: 1999
EXTT0=
EXTT1=
EXTT2=
EXTT3=
EXTT4=
EXTT5=
EXTT6=
EXTT7=
EXTT8=
EXTT9=
EXTT10=
PLAYORDER=
